<?xml version="1.0" encoding="UTF-8" standalone="no"?>
<svg viewBox="0 0 79 47" xmlns="http://www.w3.org/2000/svg">
<defs>
<filter height="2.68" id="filter3368" width="2.68" x="-.84" y="-.84">
<feGaussianBlur stdDeviation=".7"/>
</filter>
</defs>
<path d="m14.5,8.5a7,7 0 1,1 -14,0 7,7 0 1,1 14,0z" fill="#fffa72" stroke="#000" stroke-linecap="round" stroke-linejoin="round" transform="translate(32,-1)"/>
<path d="m34.5,7.5c0,3.312 2.24,5 5,5s5-1.688 5-5h-10z" fill="#fff" stroke="#000" stroke-linecap="round" stroke-linejoin="round"/>
<path d="m35.5,5.5c0-2 3-2 3,0" fill="none" stroke="#000" stroke-linecap="round" stroke-linejoin="round"/>
<path d="m40.5,5.5c0-2 3-2 3,0" fill="none" stroke="#000" stroke-linecap="round" stroke-linejoin="round"/>
<path d="m41.5,12v-4.5m-4,0v4.5" fill="none" stroke="#000" stroke-linecap="round" stroke-linejoin="round"/>
<path d="m14.5,8.5a7,7 0 1,1 -14,0 7,7 0 1,1 14,0z" fill="#fffa72" stroke="#000" stroke-linecap="round" stroke-linejoin="round" transform="translate(0,-1)"/>
<path d="m3.5,7.5c0,3 2,4 4,4s4-1 4-4" fill="none" stroke="#000" stroke-linecap="round" stroke-linejoin="round"/>
<path d="m21.5,4.5a1,1 0 1,1 -2,0 1,1 0 1,1 2,0z" stroke="#000" stroke-linecap="round" stroke-linejoin="round" transform="translate(-15)"/>
<path d="m21.5,4.5a1,1 0 1,1 -2,0 1,1 0 1,1 2,0z" stroke="#000" stroke-linecap="round" stroke-linejoin="round" transform="translate(-11)"/>
<path d="m14.5,8.5a7,7 0 1,1 -14,0 7,7 0 1,1 14,0z" fill="#fffa72" stroke="#000" stroke-linecap="round" stroke-linejoin="round" transform="translate(32,31)"/>
<path d="m21.5,4.5a1,1 0 1,1 -2,0 1,1 0 1,1 2,0z" stroke="#000" stroke-linecap="round" stroke-linejoin="round" transform="translate(17,32)"/>
<path d="m21.5,4.5a1,1 0 1,1 -2,0 1,1 0 1,1 2,0z" stroke="#000" stroke-linecap="round" stroke-linejoin="round" transform="translate(21,32)"/>
<path d="m35.5,41.5h8" fill="#ff8d72" stroke="#000" stroke-linecap="round" stroke-linejoin="round"/>
<path d="m14.5,8.5a7,7 0 1,1 -14,0 7,7 0 1,1 14,0z" fill="#fffa72" stroke="#000" stroke-linecap="round" stroke-linejoin="round" transform="translate(16,-1)"/>
<path d="m27.5,7.5h-8c0,3 2,4 4,4s4-1 4-4z" fill="#fff" stroke="#000" stroke-linecap="round" stroke-linejoin="round"/>
<path d="m21.5,4.5a1,1 0 1,1 -2,0 1,1 0 1,1 2,0z" stroke="#000" stroke-linecap="round" stroke-linejoin="round" transform="translate(1)"/>
<path d="m21.5,4.5a1,1 0 1,1 -2,0 1,1 0 1,1 2,0z" stroke="#000" stroke-linecap="round" stroke-linejoin="round" transform="translate(5)"/>
<path d="m14.5,8.5a7,7 0 1,1 -14,0 7,7 0 1,1 14,0z" fill="#fffa72" stroke="#000" stroke-linecap="round" stroke-linejoin="round" transform="translate(48,-1)"/>
<path d="m51.5,6.5c0,4 2,5 4,5s4-1 4-4" fill="none" stroke="#000" stroke-linecap="round" stroke-linejoin="round"/>
<path d="m21.5,4.5a1,1 0 1,1 -2,0 1,1 0 1,1 2,0z" stroke="#000" stroke-linecap="round" stroke-linejoin="round" transform="translate(37)"/>
<path d="m54.5,4.5h-2" fill="#ecf3f7" stroke="#000" stroke-linecap="round" stroke-linejoin="round"/>
<path d="m14.5,8.5a7,7 0 1,1 -14,0 7,7 0 1,1 14,0z" fill="#fffa72" stroke="#000" stroke-linecap="round" stroke-linejoin="round" transform="translate(32,15)"/>
<path d="m35.5,26.5c0-2 2-3 4-3s4,1 4,3" fill="none" stroke="#000" stroke-linecap="round" stroke-linejoin="round"/>
<path d="m21.5,4.5a1,1 0 1,1 -2,0 1,1 0 1,1 2,0z" stroke="#000" stroke-linecap="round" stroke-linejoin="round" transform="translate(17,16)"/>
<path d="m21.5,4.5a1,1 0 1,1 -2,0 1,1 0 1,1 2,0z" stroke="#000" stroke-linecap="round" stroke-linejoin="round" transform="translate(21,16)"/>
<path d="m14.5,8.5a7,7 0 1,1 -14,0 7,7 0 1,1 14,0z" fill="#fffa72" stroke="#000" stroke-linecap="round" stroke-linejoin="round" transform="translate(0,31)"/>
<path d="m21.5,4.5a1,1 0 1,1 -2,0 1,1 0 1,1 2,0z" stroke="#000" stroke-linecap="round" stroke-linejoin="round" transform="translate(-15,32)"/>
<path d="m22.03125,4.5a1.53125,1.45313 0 1,1 -3.0625,0 1.53125,1.45313 0 1,1 3.0625,0z" stroke="#000" stroke-linecap="round" stroke-linejoin="round" stroke-width=".99445" transform="matrix(.979592,0,0,1.032258,-10.581632,31.854838)"/>
<path d="m10.5,42.5c0,1-1.344,2-3,2s-3-1-3-2c0-1.656 1.344-3 3-3s3,1.344 3,3z" fill="#fff" stroke="#000" stroke-linecap="round" stroke-linejoin="round"/>
<path d="m14.5,8.5a7,7 0 1,1 -14,0 7,7 0 1,1 14,0z" fill="#fffa72" stroke="#000" stroke-linecap="round" stroke-linejoin="round" transform="translate(48,31)"/>
<path d="m22.03125,4.5a1.53125,1.45313 0 1,1 -3.0625,0 1.53125,1.45313 0 1,1 3.0625,0z" stroke="#000" stroke-linecap="round" stroke-linejoin="round" stroke-width=".99445" transform="matrix(.979592,0,0,1.032258,33.418368,31.854838)"/>
<path d="m54.5,42.5h2" fill="#404040" stroke="#000" stroke-linecap="round" stroke-linejoin="round"/>
<path d="m21.5,4.5a1,1 0 1,1 -2,0 1,1 0 1,1 2,0z" stroke="#000" stroke-linecap="round" stroke-linejoin="round" transform="translate(37,32)"/>
<path d="m14.5,8.5a7,7 0 1,1 -14,0 7,7 0 1,1 14,0z" fill="#fffa72" stroke="#000" stroke-linecap="round" stroke-linejoin="round" transform="translate(16,15)"/>
<path d="m21.5,4.5a1,1 0 1,1 -2,0 1,1 0 1,1 2,0z" stroke="#000" stroke-linecap="round" stroke-linejoin="round" transform="translate(0,17)"/>
<path d="m19.5,26.5c1-2 3-3 4-1s3,1 4-1" fill="none" stroke="#000" stroke-linecap="round" stroke-linejoin="round"/>
<path d="m22.03125,4.5a1.53125,1.45313 0 1,1 -3.0625,0 1.53125,1.45313 0 1,1 3.0625,0z" stroke="#000" stroke-linecap="round" stroke-linejoin="round" stroke-width=".99445" transform="matrix(.979592,0,0,1.032258,5.418368,15.854839)"/>
<path d="m14.5,8.5a7,7 0 1,1 -14,0 7,7 0 1,1 14,0z" fill="#fffa72" stroke="#000" stroke-linecap="round" stroke-linejoin="round" transform="translate(16,31)"/>
<path d="m21.5,4.5a1,1 0 1,1 -2,0 1,1 0 1,1 2,0z" stroke="#000" stroke-linecap="round" stroke-linejoin="round" transform="translate(1,32)"/>
<path d="m21.5,4.5a1,1 0 1,1 -2,0 1,1 0 1,1 2,0z" stroke="#000" stroke-linecap="round" stroke-linejoin="round" transform="translate(5,32)"/>
<path d="m39.97126,25.5a1.47126,1.47126 0 1,1 -2.94253,0 1.47126,1.47126 0 1,1 2.94253,0z" stroke="#000" stroke-linecap="round" stroke-linejoin="round" stroke-width="1.47126" transform="matrix(.679688,0,0,.679688,-2.667969,25.167969)"/>
<path d="m36.5,23.5a1,1 0 1,1 -2,0 1,1 0 1,1 2,0z" fill="#c00" filter="url(#filter3368)" transform="translate(-16,17)"/>
<path d="m36.5,23.5a1,1 0 1,1 -2,0 1,1 0 1,1 2,0z" fill="#c00" filter="url(#filter3368)" transform="translate(-8,17)"/>
<path d="m14.5,8.5a7,7 0 1,1 -14,0 7,7 0 1,1 14,0z" fill="#fffa72" stroke="#000" stroke-linecap="round" stroke-linejoin="round" transform="translate(0,15)"/>
<path d="m21.5,4.5a1,1 0 1,1 -2,0 1,1 0 1,1 2,0z" stroke="#000" stroke-linecap="round" stroke-linejoin="round" transform="translate(-15,16)"/>
<path d="m21.5,4.5a1,1 0 1,1 -2,0 1,1 0 1,1 2,0z" stroke="#000" stroke-linecap="round" stroke-linejoin="round" transform="translate(-11,16)"/>
<path d="m6.5,24.5v3c0,1 4,1 4,0v-3" fill="#fda7ff" stroke="#6b1a6f" stroke-linecap="round" stroke-linejoin="round"/>
<path d="m8.5,24.5v2" fill="none" stroke="#6b1a6f" stroke-linecap="round" stroke-linejoin="round"/>
<path d="m3.5,24.5h8" fill="none" stroke="#000" stroke-linecap="round" stroke-linejoin="round"/>
<path d="m14.5,8.5a7,7 0 1,1 -14,0 7,7 0 1,1 14,0z" fill="#fffa72" stroke="#000" stroke-linecap="round" stroke-linejoin="round" transform="translate(64,15)"/>
<path d="m67.5,26.5c0-1 2-2 4-2s4,1 4,2" fill="none" stroke="#000" stroke-linecap="round" stroke-linejoin="round"/>
<path d="m68.5,18.5 3,1" fill="#fff" stroke="#000" stroke-linecap="round" stroke-linejoin="round"/>
<path d="m71.5,19.5 3-1" fill="#fff" stroke="#000" stroke-linecap="round" stroke-linejoin="round"/>
<path d="m21.5,4.5a1,1 0 1,1 -2,0 1,1 0 1,1 2,0z" stroke="#000" stroke-linecap="round" stroke-linejoin="round" transform="translate(49,17)"/>
<path d="m21.5,4.5a1,1 0 1,1 -2,0 1,1 0 1,1 2,0z" stroke="#000" stroke-linecap="round" stroke-linejoin="round" transform="translate(53,17)"/>
<path d="m14.5,8.5a7,7 0 1,1 -14,0 7,7 0 1,1 14,0z" fill="#fffa72" stroke="#000" stroke-linecap="round" stroke-linejoin="round" transform="translate(48,15)"/>
<path d="m59.5,22.5c0-1-.9375-1-1.9375-1" fill="none" stroke="#00cfff" stroke-linecap="round" stroke-linejoin="round" stroke-width="2"/>
<path d="m58.5,19.5-2,2h3" fill="none" stroke="#000" stroke-linecap="round" stroke-linejoin="round"/>
<path d="m53.5625,21.5c-1,0-2.0625,0-2.0625,1" fill="none" stroke="#00cfff" stroke-linecap="round" stroke-linejoin="round" stroke-width="2"/>
<path d="m52.5,19.5 2,2h-3" fill="none" stroke="#000" stroke-linecap="round" stroke-linejoin="round"/>
<path d="m52.5,23.5c-1,1-1,3 0,4 2-1 4-1 6,0 1-1 1-3 0-4-2,1-4,1-6,0z" fill="#fff" stroke="#000" stroke-linecap="round" stroke-linejoin="round"/>
<path d="m14.5,8.5a7,7 0 1,1 -14,0 7,7 0 1,1 14,0z" fill="#fffa72" stroke="#000" stroke-linecap="round" stroke-linejoin="round" transform="translate(64,-1)"/>
<path d="m67.5,7.5c0,1 2,2 4,2s4-1 4-2" fill="none" stroke="#000" stroke-linecap="round" stroke-linejoin="round"/>
<path d="m65.5,4.5h12" fill="#c1c1c1" stroke="#000" stroke-linecap="round" stroke-linejoin="round"/>
<path d="m72.5,3.5v2h2v-2h-2z" stroke="#000" stroke-linecap="round" stroke-linejoin="round"/>
<path d="m68.5,3.5v2h2v-2h-2z" stroke="#000" stroke-linecap="round" stroke-linejoin="round"/>
<path d="m14.5,8.5a7,7 0 1,1 -14,0 7,7 0 1,1 14,0z" fill="#fffa72" stroke="#000" stroke-linecap="round" stroke-linejoin="round" transform="translate(64,31)"/>
<path d="m21.5,4.5a1,1 0 1,1 -2,0 1,1 0 1,1 2,0z" stroke="#000" stroke-linecap="round" stroke-linejoin="round" transform="translate(49,31)"/>
<path d="m21.5,4.5a1,1 0 1,1 -2,0 1,1 0 1,1 2,0z" stroke="#000" stroke-linecap="round" stroke-linejoin="round" transform="translate(53,31)"/>
<path d="m72.5,42.5h2" fill="#404040" stroke="#000" stroke-linecap="round" stroke-linejoin="round"/>
</svg>
